<?xml version="1.0" encoding="UTF-8" standalone="no"?>
<svg
   width="206.0mm"
   height="179.0mm"
   viewBox="0 0 206.0 179.0"
   version="1.1"
   id="svg1"
   sodipodi:docname="glassDesign_V2.svg"
   inkscape:version="1.3.2 (091e20e, 2023-11-25, custom)"
   xmlns:inkscape="http://www.inkscape.org/namespaces/inkscape"
   xmlns:sodipodi="http://sodipodi.sourceforge.net/DTD/sodipodi-0.dtd"
   xmlns="http://www.w3.org/2000/svg"
   xmlns:svg="http://www.w3.org/2000/svg">
  <defs
     id="defs1" />
  <sodipodi:namedview
     id="namedview1"
     pagecolor="#ffffff"
     bordercolor="#666666"
     borderopacity="1.0"
     inkscape:showpageshadow="2"
     inkscape:pageopacity="0.0"
     inkscape:pagecheckerboard="0"
     inkscape:deskcolor="#d1d1d1"
     inkscape:document-units="mm"
     inkscape:zoom="1.1632798"
     inkscape:cx="388.98638"
     inkscape:cy="337.8379"
     inkscape:window-width="2100"
     inkscape:window-height="1234"
     inkscape:window-x="2391"
     inkscape:window-y="-9"
     inkscape:window-maximized="1"
     inkscape:current-layer="svg1" />
  <desc
     id="desc1">Output from Flights of Ideas SVG Sketchup Plugin</desc>
  <path
     id="face0-cut"
     style="display:inline;fill:none;stroke:#ff0000;stroke-width:1;stroke-linecap:round;stroke-linejoin:round;stroke-miterlimit:4;stroke-dasharray:none;stroke-opacity:1"
     d="M 40.2,38 40.125037,38.569402 39.905256,39.1 39.555635,39.555635 39.1,39.905256 38.569402,40.125037 38,40.2 37.430598,40.125037 36.9,39.905256 36.444365,39.555635 36.094744,39.1 35.874963,38.569402 35.8,38 35.874963,37.430598 36.094744,36.9 36.444365,36.444365 36.9,36.094744 37.430598,35.874963 38,35.8 38.569402,35.874963 39.1,36.094744 39.555635,36.444365 39.905256,36.9 40.125037,37.430598 40.2,38 M 173,80.2 172.68942,80.159111 172.4,80.03923 172.15147,79.848528 171.96077,79.6 171.84089,79.310583 171.8,79 171.84089,78.689417 171.96077,78.4 172.15147,78.151472 172.4,77.96077 172.68942,77.840889 173,77.8 l 0.31058,0.04089 0.28942,0.119881 0.24853,0.190702 0.1907,0.248528 0.11988,0.289417 L 174.2,79 174.15911,79.310583 174.03923,79.6 173.84853,79.848528 173.6,80.03923 173.31058,80.159111 173,80.2 M 171.8,100 171.8409,99.689417 171.96077,99.4 172.15147,99.151472 172.4,98.96077 172.68942,98.840889 173,98.8 l 0.31058,0.04089 0.28942,0.119881 0.24853,0.190702 0.1907,0.248528 0.11988,0.289417 L 174.2,100 l -0.0409,0.31058 -0.11988,0.28942 -0.1907,0.24853 -0.24853,0.1907 -0.28942,0.11988 L 173,101.2 l -0.31058,-0.0409 -0.28942,-0.11988 -0.24853,-0.1907 -0.1907,-0.24853 -0.11988,-0.28942 L 171.8,100 m -19.83923,0.6 -0.11988,-0.28942 L 151.8,100 151.84089,99.689417 151.96077,99.4 152.15147,99.151472 152.4,98.96077 152.68942,98.840889 153,98.8 l 0.31058,0.04089 0.28942,0.119881 0.24853,0.190702 0.1907,0.248528 0.11988,0.289417 L 154.2,100 l -0.0409,0.31058 -0.11988,0.28942 -0.1907,0.24853 -0.24853,0.1907 -0.28942,0.11988 L 153,101.2 l -0.31058,-0.0409 -0.28942,-0.11988 -0.24853,-0.1907 -0.1907,-0.24853 M 152.68942,80.159111 152.4,80.03923 152.15147,79.848528 151.96077,79.6 151.84089,79.310583 151.8,79 151.84089,78.689417 151.96077,78.4 152.15147,78.151472 152.4,77.96077 152.68942,77.840889 153,77.8 l 0.31058,0.04089 0.28942,0.119881 0.24853,0.190702 0.1907,0.248528 0.11988,0.289417 L 154.2,79 154.15911,79.310583 154.03923,79.6 153.84853,79.848528 153.6,80.03923 153.31058,80.159111 153,80.2 152.68942,80.15911 m 2.15373,3.684035 L 156.5,82.571797 158.42945,81.772593 160.5,81.5 l 2.07055,0.272593 1.92945,0.799204 1.65685,1.271349 L 167.4282,85.5 168.22741,87.429448 168.5,89.5 168.22741,91.570552 167.4282,93.5 166.15685,95.156854 164.5,96.428203 162.57055,97.227407 160.5,97.5 158.42945,97.227407 156.5,96.428203 154.84315,95.156854 153.5718,93.5 152.77259,91.570552 152.5,89.5 152.77259,87.429448 153.5718,85.5 154.84315,83.843146 M 159.46077,99.4 159.65147,99.151472 159.9,98.96077 160.18942,98.840889 160.5,98.8 l 0.31058,0.04089 0.28942,0.119881 0.24853,0.190702 0.1907,0.248528 0.11988,0.289417 L 161.7,100 l -0.0409,0.31058 -0.11988,0.28942 -0.1907,0.24853 -0.24853,0.1907 -0.28942,0.11988 -0.31058,0.0409 -0.31058,-0.0409 -0.28942,-0.11988 -0.24853,-0.1907 -0.1907,-0.24853 -0.11988,-0.28942 L 159.3,100 159.34089,99.689417 159.46077,99.4 M 161.1,80.03923 160.81058,80.159111 160.5,80.2 160.18942,80.159111 159.9,80.03923 159.65147,79.848528 159.46077,79.6 159.34089,79.310583 159.3,79 159.34089,78.689417 159.46077,78.4 159.65147,78.151472 159.9,77.96077 160.18942,77.840889 160.5,77.8 l 0.31058,0.04089 0.28942,0.119881 0.24853,0.190702 0.1907,0.248528 0.11988,0.289417 L 161.7,79 161.65911,79.310583 161.53923,79.6 161.34853,79.848528 161.1,80.03923 M 97.448889,77.611771 97.5,78 97.448889,78.388229 97.299038,78.75 97.06066,79.06066 96.75,79.299038 96.388229,79.448889 96,79.5 95.611771,79.448889 95.25,79.299038 94.93934,79.06066 94.700962,78.75 94.551111,78.388229 94.5,78 94.551111,77.611771 94.700962,77.25 94.93934,76.93934 95.25,76.700962 95.611771,76.551111 96,76.5 l 0.388229,0.05111 0.361771,0.149851 0.31066,0.238378 0.238378,0.31066 0.149851,0.361771 M 94.551111,101.38823 94.5,101 94.551111,100.61177 94.700962,100.25 94.93934,99.93934 95.25,99.700962 95.611771,99.551111 96,99.5 96.388229,99.55111 96.75,99.700961 97.06066,99.939339 97.299038,100.25 97.448889,100.61177 97.5,101 97.448889,101.38823 97.299038,101.75 97.06066,102.06066 96.75,102.29904 96.388229,102.44889 96,102.5 95.611771,102.44889 95.25,102.29904 94.93934,102.06066 94.700962,101.75 94.551111,101.38823 M 38.75,79.299038 38.388229,79.448889 38,79.5 37.611771,79.448889 37.25,79.299038 36.93934,79.06066 36.700962,78.75 36.551111,78.388229 36.5,78 36.551111,77.611771 36.700962,77.25 36.93934,76.93934 37.25,76.700962 37.611771,76.551111 38,76.5 38.388229,76.551111 38.75,76.700962 39.06066,76.93934 39.299038,77.25 39.448889,77.611771 39.5,78 39.448889,78.388229 39.299038,78.75 39.06066,79.06066 38.75,79.299038 M 39.299038,100.25 39.448889,100.61177 39.5,101 39.448889,101.38823 39.299038,101.75 39.06066,102.06066 38.75,102.29904 38.388229,102.44889 38,102.5 37.611771,102.44889 37.25,102.29904 36.93934,102.06066 36.700962,101.75 36.551111,101.38823 36.5,101 36.551111,100.61177 36.700962,100.25 36.93934,99.93934 37.25,99.700962 37.611771,99.551111 38,99.5 38.388229,99.551111 38.75,99.700962 39.06066,99.93934 39.299038,100.25 M 170.2,38 170.12504,38.569402 169.90526,39.1 169.55563,39.555635 169.1,39.905256 168.5694,40.125037 168,40.2 167.4306,40.125037 166.9,39.905256 166.44437,39.555635 166.09474,39.1 165.87496,38.569402 165.8,38 165.87496,37.430598 166.09474,36.9 166.44437,36.444365 166.9,36.094744 167.4306,35.874963 168,35.8 l 0.5694,0.07496 0.5306,0.219781 0.45563,0.349621 0.34963,0.455635 0.21978,0.530598 L 170.2,38 M 38.569402,138.87496 39.1,139.09474 l 0.455635,0.34963 0.349621,0.45563 0.219781,0.5306 L 40.2,141 40.125037,141.5694 39.905256,142.1 39.555635,142.55563 39.1,142.90526 38.569402,143.12504 38,143.2 37.430598,143.12504 36.9,142.90526 36.444365,142.55563 36.094744,142.1 35.874963,141.5694 35.8,141 35.874963,140.4306 36.094744,139.9 36.444365,139.44437 36.9,139.09474 37.430598,138.87496 38,138.8 l 0.569402,0.075 m 131.335858,1.025 0.21978,0.5306 0.075,0.5694 -0.075,0.5694 -0.21978,0.5306 -0.34963,0.45563 -0.45563,0.34963 -0.5306,0.21978 -0.5694,0.075 -0.5694,-0.075 -0.5306,-0.21978 -0.45563,-0.34963 L 166.09474,142.1 165.87496,141.5694 165.8,141 l 0.075,-0.5694 0.21978,-0.5306 0.34963,-0.45563 0.45563,-0.34963 0.5306,-0.21978 0.5694,-0.075 0.5694,0.075 0.5306,0.21978 0.45563,0.34963 0.34963,0.45563 M 73.417638,142.93185 72.9,143 72.382362,142.93185 71.9,142.73205 71.485786,142.41421 71.167949,142 70.968148,141.51764 70.9,141 70.968148,140.48236 71.167949,140 71.485786,139.58579 71.9,139.26795 72.382362,139.06815 72.9,139 73.417638,139.0682 73.9,139.268 74.314214,139.58584 74.632051,140 74.831852,140.48236 74.9,141 74.831852,141.51764 74.632051,142 74.314214,142.41421 73.9,142.73205 l -0.482362,0.1998 M 80.831852,141.51764 80.632051,142 80.314214,142.41421 79.9,142.73205 79.417638,142.93185 78.9,143 78.382362,142.93185 77.9,142.73205 77.485786,142.41421 77.167949,142 76.968148,141.51764 76.9,141 76.968148,140.48236 77.167949,140 77.485786,139.58579 77.9,139.26795 78.382362,139.06815 78.9,139 79.417638,139.0682 79.9,139.268 80.314214,139.58584 80.632051,140 80.831852,140.48236 80.9,141 l -0.06815,0.51764 m 5.185786,1.41421 L 85.5,143 84.982362,142.93185 84.5,142.73205 84.085786,142.41421 83.767949,142 83.568148,141.51764 83.5,141 83.568148,140.48236 83.767949,140 84.085786,139.58579 84.5,139.26795 84.982362,139.06815 85.5,139 86.017638,139.0682 86.5,139.268 86.914214,139.58584 87.232051,140 87.431852,140.48236 87.5,141 87.431852,141.51764 87.232051,142 86.914214,142.41421 86.5,142.73205 l -0.482362,0.1998 M 92.914214,142.41421 92.5,142.73205 92.017638,142.93185 91.5,143 90.982362,142.93185 90.5,142.73205 90.085786,142.41421 89.767949,142 89.568148,141.51764 89.5,141 89.568148,140.48236 89.767949,140 90.085786,139.58579 90.5,139.26795 90.982362,139.06815 91.5,139 92.017638,139.0682 92.5,139.268 92.914214,139.58584 93.232051,140 93.431852,140.48236 93.5,141 93.431852,141.51764 93.232051,142 92.914214,142.41421 M 63.111771,80.051111 63.5,80 63.888229,80.051111 64.25,80.200962 64.56066,80.43934 64.799038,80.75 64.948889,81.111771 65,81.5 64.948889,81.888229 64.799038,82.25 64.56066,82.56066 64.25,82.799038 63.888229,82.948889 63.5,83 63.111771,82.948889 62.75,82.799038 62.43934,82.56066 62.200962,82.25 62.051111,81.888229 62,81.5 62.051111,81.111771 62.200962,80.75 62.43934,80.43934 62.75,80.200962 63.111771,80.051111 M 62.051111,130.11177 62.200962,129.75 62.43934,129.43934 62.75,129.20096 63.111771,129.05111 63.5,129 l 0.388229,0.0511 0.361771,0.14985 0.31066,0.23838 0.238378,0.31066 0.149851,0.36177 L 65,130.5 64.948889,130.88823 64.799038,131.25 64.56066,131.56066 64.25,131.79904 63.888229,131.94889 63.5,132 63.111771,131.94889 62.75,131.79904 62.43934,131.56066 62.200962,131.25 62.051111,130.88823 62,130.5 l 0.05111,-0.38823 m 59.83712,-1.06066 0.36177,0.14985 0.31066,0.23838 0.23838,0.31066 0.14985,0.36177 L 123,130.5 l -0.0511,0.38823 -0.14985,0.36177 -0.23838,0.31066 -0.31066,0.23838 -0.36177,0.14985 L 121.5,132 l -0.38823,-0.0511 -0.36177,-0.14985 -0.31066,-0.23838 -0.23838,-0.31066 -0.14985,-0.36177 L 120,130.5 l 0.0511,-0.38823 0.14985,-0.36177 0.23838,-0.31066 0.31066,-0.23838 0.36177,-0.14985 L 121.5,129 l 0.38823,0.0511 M 120.43934,82.56066 120.20096,82.25 120.05111,81.888229 120,81.5 120.05111,81.111771 120.20096,80.75 120.43934,80.43934 120.75,80.200962 121.11177,80.051111 121.5,80 l 0.38823,0.05111 0.36177,0.149851 0.31066,0.238378 0.23838,0.31066 0.14985,0.361771 L 123,81.5 122.94889,81.888229 122.79904,82.25 122.56066,82.56066 122.25,82.799038 121.88823,82.948889 121.5,83 121.11177,82.948889 120.75,82.799038 120.43934,82.56066 M 116.4,40.232051 115.98579,39.914214 115.66795,39.5 115.46815,39.017638 115.4,38.5 115.46815,37.982362 115.66795,37.5 115.98579,37.085786 116.4,36.767949 116.88236,36.568148 117.4,36.5 l 0.51764,0.06815 0.48236,0.199801 0.41421,0.317837 0.31784,0.414214 0.1998,0.482362 L 119.4,38.5 119.33185,39.017638 119.13205,39.5 118.81421,39.914214 118.4,40.232051 117.91764,40.431852 117.4,40.5 116.88236,40.431852 116.4,40.232051 M 111.4,40.5 110.88236,40.431852 110.4,40.232051 109.98579,39.914214 109.66795,39.5 109.46815,39.017638 109.4,38.5 109.46815,37.982362 109.66795,37.5 109.98579,37.085786 110.4,36.767949 110.88236,36.568148 111.4,36.5 l 0.51764,0.06815 0.48236,0.199801 0.41421,0.317837 0.31784,0.414214 0.1998,0.482362 L 113.4,38.5 113.33185,39.017638 113.13205,39.5 112.81421,39.914214 112.4,40.232051 111.91764,40.431852 111.4,40.5"
     inkscape:label="Holes"
     sodipodi:nodetypes="ccccccccccccccccccccccccccccccccccccccccccccccccccccccccccccccccccccccccccccccccccccccccccccccccccccccccccccccccccccccccccccccccccccccccccccccccccccccccccccccccccccccccccccccccccccccccccccccccccccccccccccccccccccccccccccccccccccccccccccccccccccccccccccccccccccccccccccccccccccccccccccccccccccccccccccccccccccccccccccccccccccccccccccccccccccccccccccccccccccccccccccccccccccccccccccccccccccccccccccccccccccccccccccccccccccccccccccccccccccccccccccccccccccccccccccccccccccccccccccccccccccccccccccccccccccccccccccccccccccccccccccccccccccccccccccccccccccccccccccccccccccccccccccccccccccccccccccccccccccccccccccccccccccccccccccccccc" />
  <path
     id="path1"
     style="display:inline;fill:none;stroke:#0000ff;stroke-width:1;stroke-linecap:round;stroke-linejoin:round;stroke-miterlimit:4;stroke-dasharray:none"
     d="m 168,169 3.65473,-0.23954 3.5922,-0.71454 3.46821,-1.17729 3.28486,-1.61992 3.04532,-2.03482 2.75367,-2.4149 2.4149,-2.75367 2.03482,-3.04532 1.61992,-3.28486 1.17729,-3.46821 0.71454,-3.5922 L 196,141 V 38 l -0.23954,-3.654733 -0.71454,-3.5922 -1.17729,-3.468203 L 192.24871,24 190.21389,20.95468 187.79899,18.20101 185.04532,15.786106 182,13.751289 178.71514,12.131373 175.24693,10.954077 171.65473,10.239544 168,10 H 38 l -3.654733,0.239544 -3.5922,0.714533 -3.468203,1.177296 L 24,13.751289 20.95468,15.786106 18.20101,18.20101 15.786106,20.95468 13.751289,24 l -1.619916,3.284864 -1.177296,3.468203 -0.714533,3.5922 L 10,38 v 103 l 0.239544,3.65473 0.714533,3.5922 1.177296,3.46821 1.619916,3.28486 2.034817,3.04532 2.414904,2.75367 2.75367,2.4149 3.04532,2.03482 3.284864,1.61992 3.468203,1.17729 3.5922,0.71454 L 38,169 h 130"
     inkscape:label="Outline"
     sodipodi:nodetypes="ccccccccccccccccccccccccccccccccccccccccccccccccccccc" />
</svg>
