  0
SECTION
  2
HEADER
  9
$ACADVER
  1
AC1014
  9
$HANDSEED
  5
FFFF
  9
$INSUNITS
 70
     4
  9
$MEASUREMENT
 70
     1
  0
ENDSEC
  0
SECTION
  2
TABLES
  0
TABLE
  2
VPORT
  5
8
330
0
100
AcDbSymbolTable
 70
     4
  0
VPORT
  5
2E
330
8
100
AcDbSymbolTableRecord
100
AcDbViewportTableRecord
  2
*ACTIVE
 70
     0
 10
0.0
 20
0.0
 11
1.0
 21
1.0
 12
210.0
 22
148.5
 13
0.0
 23
0.0
 14
10.0
 24
10.0
 15
10.0
 25
10.0
 16
0.0
 26
0.0
 36
1.0
 17
0.0
 27
0.0
 37
0.0
 40
341.0
 41
1.24
 42
50.0
 43
0.0
 44
0.0
 50
0.0
 51
0.0
 71
     0
 72
   100
 73
     1
 74
     3
 75
     0
 76
     0
 77
     0
 78
     0
  0
ENDTAB
  0
TABLE
  2
LTYPE
  5
5
330
0
100
AcDbSymbolTable
 70
     1
  0
LTYPE
  5
14
330
5
100
AcDbSymbolTableRecord
100
AcDbLinetypeTableRecord
  2
BYBLOCK
 70
     0
  3

 72
    65
 73
     0
 40
0.0
  0
LTYPE
  5
15
330
5
100
AcDbSymbolTableRecord
100
AcDbLinetypeTableRecord
  2
BYLAYER
 70
     0
  3

 72
    65
 73
     0
 40
0.0
  0
LTYPE
  5
16
330
5
100
AcDbSymbolTableRecord
100
AcDbLinetypeTableRecord
  2
CONTINUOUS
 70
     0
  3
Solid line
 72
    65
 73
     0
 40
0.0
  0
ENDTAB
  0
TABLE
  2
LAYER
  5
2
100
AcDbSymbolTable
 70
1
  0
LAYER
  5
50
100
AcDbSymbolTableRecord
100
AcDbLayerTableRecord
  2
0
 70
0
  6
CONTINUOUS
  0
ENDTAB
  0
TABLE
  2
STYLE
  5
3
330
0
100
AcDbSymbolTable
 70
     1
  0
STYLE
  5
11
330
3
100
AcDbSymbolTableRecord
100
AcDbTextStyleTableRecord
  2
STANDARD
 70
     0
 40
0.0
 41
1.0
 50
0.0
 71
     0
 42
2.5
  3
txt
  4

  0
ENDTAB
  0
TABLE
  2
VIEW
  5
6
330
0
100
AcDbSymbolTable
 70
     0
  0
ENDTAB
  0
TABLE
  2
UCS
  5
7
330
0
100
AcDbSymbolTable
 70
     0
  0
ENDTAB
  0
TABLE
  2
APPID
  5
9
330
0
100
AcDbSymbolTable
 70
     2
  0
APPID
  5
12
330
9
100
AcDbSymbolTableRecord
100
AcDbRegAppTableRecord
  2
ACAD
 70
     0
  0
ENDTAB
  0
TABLE
  2
DIMSTYLE
  5
A
330
0
100
AcDbSymbolTable
 70
     1
  0
DIMSTYLE
105
27
330
A
100
AcDbSymbolTableRecord
100
AcDbDimStyleTableRecord
  2
ISO-25
 70
     0
  3

  4

  5

  6

  7

 40
1.0
 41
2.5
 42
0.625
 43
3.75
 44
1.25
 45
0.0
 46
0.0
 47
0.0
 48
0.0
140
2.5
141
2.5
142
0.0
143
0.03937007874016
144
1.0
145
0.0
146
1.0
147
0.625
 71
     0
 72
     0
 73
     0
 74
     0
 75
     0
 76
     0
 77
     1
 78
     8
170
     0
171
     3
172
     1
173
     0
174
     0
175
     0
176
     0
177
     0
178
     0
270
     2
271
     2
272
     2
273
     2
274
     3
340
11
275
     0
280
     0
281
     0
282
     0
283
     0
284
     8
285
     0
286
     0
287
     3
288
     0
  0
ENDTAB
  0
TABLE
  2
BLOCK_RECORD
  5
1
330
0
100
AcDbSymbolTable
 70
     1
  0
BLOCK_RECORD
  5
1F
330
1
100
AcDbSymbolTableRecord
100
AcDbBlockTableRecord
  2
*MODEL_SPACE
  0
BLOCK_RECORD
  5
1B
330
1
100
AcDbSymbolTableRecord
100
AcDbBlockTableRecord
  2
*PAPER_SPACE
  0
ENDTAB
  0
ENDSEC
  0
SECTION
  2
BLOCKS
  0
BLOCK
  5
20
330
1F
100
AcDbEntity
  8
0
100
AcDbBlockBegin
  2
*MODEL_SPACE
 70
     0
 10
0.0
 20
0.0
 30
0.0
  3
*MODEL_SPACE
  1

  0
ENDBLK
  5
21
330
1F
100
AcDbEntity
  8
0
100
AcDbBlockEnd
  0
BLOCK
  5
1C
330
1B
100
AcDbEntity
 67
     1
  8
0
100
AcDbBlockBegin
  2
*PAPER_SPACE
  1

  0
ENDBLK
  5
1D
330
1B
100
AcDbEntity
 67
     1
  8
0
100
AcDbBlockEnd
  0
ENDSEC
  0
SECTION
  2
ENTITIES
  0
LWPOLYLINE
  5
100
100
AcDbEntity
  8
0
 62
1
100
AcDbPolyline
 90
24
 70
1
 10
40.200000
 20
141.000000
 30
0.0
 10
40.125037
 20
140.430598
 30
0.0
 10
39.905256
 20
139.900000
 30
0.0
 10
39.555635
 20
139.444365
 30
0.0
 10
39.100000
 20
139.094744
 30
0.0
 10
38.569402
 20
138.874963
 30
0.0
 10
38.000000
 20
138.800000
 30
0.0
 10
37.430598
 20
138.874963
 30
0.0
 10
36.900000
 20
139.094744
 30
0.0
 10
36.444365
 20
139.444365
 30
0.0
 10
36.094744
 20
139.900000
 30
0.0
 10
35.874963
 20
140.430598
 30
0.0
 10
35.800000
 20
141.000000
 30
0.0
 10
35.874963
 20
141.569402
 30
0.0
 10
36.094744
 20
142.100000
 30
0.0
 10
36.444365
 20
142.555635
 30
0.0
 10
36.900000
 20
142.905256
 30
0.0
 10
37.430598
 20
143.125037
 30
0.0
 10
38.000000
 20
143.200000
 30
0.0
 10
38.569402
 20
143.125037
 30
0.0
 10
39.100000
 20
142.905256
 30
0.0
 10
39.555635
 20
142.555635
 30
0.0
 10
39.905256
 20
142.100000
 30
0.0
 10
40.125037
 20
141.569402
 30
0.0
  0
LWPOLYLINE
  5
101
100
AcDbEntity
  8
0
 62
1
100
AcDbPolyline
 90
24
 70
1
 10
173.000000
 20
98.800000
 30
0.0
 10
172.689420
 20
98.840889
 30
0.0
 10
172.400000
 20
98.960770
 30
0.0
 10
172.151470
 20
99.151472
 30
0.0
 10
171.960770
 20
99.400000
 30
0.0
 10
171.840890
 20
99.689417
 30
0.0
 10
171.800000
 20
100.000000
 30
0.0
 10
171.840890
 20
100.310583
 30
0.0
 10
171.960770
 20
100.600000
 30
0.0
 10
172.151470
 20
100.848528
 30
0.0
 10
172.400000
 20
101.039230
 30
0.0
 10
172.689420
 20
101.159111
 30
0.0
 10
173.000000
 20
101.200000
 30
0.0
 10
173.310580
 20
101.159110
 30
0.0
 10
173.600000
 20
101.039229
 30
0.0
 10
173.848530
 20
100.848527
 30
0.0
 10
174.039230
 20
100.599999
 30
0.0
 10
174.159110
 20
100.310582
 30
0.0
 10
174.200000
 20
100.000000
 30
0.0
 10
174.159110
 20
99.689417
 30
0.0
 10
174.039230
 20
99.400000
 30
0.0
 10
173.848530
 20
99.151472
 30
0.0
 10
173.600000
 20
98.960770
 30
0.0
 10
173.310580
 20
98.840889
 30
0.0
  0
LWPOLYLINE
  5
102
100
AcDbEntity
  8
0
 62
1
100
AcDbPolyline
 90
24
 70
1
 10
171.800000
 20
79.000000
 30
0.0
 10
171.840900
 20
79.310583
 30
0.0
 10
171.960770
 20
79.600000
 30
0.0
 10
172.151470
 20
79.848528
 30
0.0
 10
172.400000
 20
80.039230
 30
0.0
 10
172.689420
 20
80.159111
 30
0.0
 10
173.000000
 20
80.200000
 30
0.0
 10
173.310580
 20
80.159110
 30
0.0
 10
173.600000
 20
80.039229
 30
0.0
 10
173.848530
 20
79.848527
 30
0.0
 10
174.039230
 20
79.599999
 30
0.0
 10
174.159110
 20
79.310582
 30
0.0
 10
174.200000
 20
79.000000
 30
0.0
 10
174.159100
 20
78.689420
 30
0.0
 10
174.039220
 20
78.400000
 30
0.0
 10
173.848520
 20
78.151470
 30
0.0
 10
173.599990
 20
77.960770
 30
0.0
 10
173.310570
 20
77.840890
 30
0.0
 10
173.000000
 20
77.800000
 30
0.0
 10
172.689420
 20
77.840900
 30
0.0
 10
172.400000
 20
77.960780
 30
0.0
 10
172.151470
 20
78.151480
 30
0.0
 10
171.960770
 20
78.400010
 30
0.0
 10
171.840890
 20
78.689430
 30
0.0
  0
LWPOLYLINE
  5
103
100
AcDbEntity
  8
0
 62
1
100
AcDbPolyline
 90
24
 70
1
 10
151.960770
 20
78.400000
 30
0.0
 10
151.840890
 20
78.689420
 30
0.0
 10
151.800000
 20
79.000000
 30
0.0
 10
151.840890
 20
79.310583
 30
0.0
 10
151.960770
 20
79.600000
 30
0.0
 10
152.151470
 20
79.848528
 30
0.0
 10
152.400000
 20
80.039230
 30
0.0
 10
152.689420
 20
80.159111
 30
0.0
 10
153.000000
 20
80.200000
 30
0.0
 10
153.310580
 20
80.159110
 30
0.0
 10
153.600000
 20
80.039229
 30
0.0
 10
153.848530
 20
79.848527
 30
0.0
 10
154.039230
 20
79.599999
 30
0.0
 10
154.159110
 20
79.310582
 30
0.0
 10
154.200000
 20
79.000000
 30
0.0
 10
154.159100
 20
78.689420
 30
0.0
 10
154.039220
 20
78.400000
 30
0.0
 10
153.848520
 20
78.151470
 30
0.0
 10
153.599990
 20
77.960770
 30
0.0
 10
153.310570
 20
77.840890
 30
0.0
 10
153.000000
 20
77.800000
 30
0.0
 10
152.689420
 20
77.840900
 30
0.0
 10
152.400000
 20
77.960780
 30
0.0
 10
152.151470
 20
78.151480
 30
0.0
  0
LWPOLYLINE
  5
104
100
AcDbEntity
  8
0
 62
1
100
AcDbPolyline
 90
24
 70
1
 10
152.689420
 20
98.840889
 30
0.0
 10
152.400000
 20
98.960770
 30
0.0
 10
152.151470
 20
99.151472
 30
0.0
 10
151.960770
 20
99.400000
 30
0.0
 10
151.840890
 20
99.689417
 30
0.0
 10
151.800000
 20
100.000000
 30
0.0
 10
151.840890
 20
100.310583
 30
0.0
 10
151.960770
 20
100.600000
 30
0.0
 10
152.151470
 20
100.848528
 30
0.0
 10
152.400000
 20
101.039230
 30
0.0
 10
152.689420
 20
101.159111
 30
0.0
 10
153.000000
 20
101.200000
 30
0.0
 10
153.310580
 20
101.159110
 30
0.0
 10
153.600000
 20
101.039229
 30
0.0
 10
153.848530
 20
100.848527
 30
0.0
 10
154.039230
 20
100.599999
 30
0.0
 10
154.159110
 20
100.310582
 30
0.0
 10
154.200000
 20
100.000000
 30
0.0
 10
154.159110
 20
99.689417
 30
0.0
 10
154.039230
 20
99.400000
 30
0.0
 10
153.848530
 20
99.151472
 30
0.0
 10
153.600000
 20
98.960770
 30
0.0
 10
153.310580
 20
98.840889
 30
0.0
 10
153.000000
 20
98.800000
 30
0.0
  0
LWPOLYLINE
  5
105
100
AcDbEntity
  8
0
 62
1
100
AcDbPolyline
 90
24
 70
1
 10
154.843150
 20
95.156855
 30
0.0
 10
156.500000
 20
96.428203
 30
0.0
 10
158.429450
 20
97.227407
 30
0.0
 10
160.500000
 20
97.500000
 30
0.0
 10
162.570550
 20
97.227407
 30
0.0
 10
164.500000
 20
96.428203
 30
0.0
 10
166.156850
 20
95.156854
 30
0.0
 10
167.428200
 20
93.500000
 30
0.0
 10
168.227410
 20
91.570552
 30
0.0
 10
168.500000
 20
89.500000
 30
0.0
 10
168.227410
 20
87.429448
 30
0.0
 10
167.428200
 20
85.500000
 30
0.0
 10
166.156850
 20
83.843146
 30
0.0
 10
164.500000
 20
82.571797
 30
0.0
 10
162.570550
 20
81.772593
 30
0.0
 10
160.500000
 20
81.500000
 30
0.0
 10
158.429450
 20
81.772593
 30
0.0
 10
156.500000
 20
82.571797
 30
0.0
 10
154.843150
 20
83.843146
 30
0.0
 10
153.571800
 20
85.500000
 30
0.0
 10
152.772590
 20
87.429448
 30
0.0
 10
152.500000
 20
89.500000
 30
0.0
 10
152.772590
 20
91.570552
 30
0.0
 10
153.571800
 20
93.500000
 30
0.0
  0
LWPOLYLINE
  5
106
100
AcDbEntity
  8
0
 62
1
100
AcDbPolyline
 90
24
 70
1
 10
159.460770
 20
79.600000
 30
0.0
 10
159.651470
 20
79.848528
 30
0.0
 10
159.900000
 20
80.039230
 30
0.0
 10
160.189420
 20
80.159111
 30
0.0
 10
160.500000
 20
80.200000
 30
0.0
 10
160.810580
 20
80.159110
 30
0.0
 10
161.100000
 20
80.039229
 30
0.0
 10
161.348530
 20
79.848527
 30
0.0
 10
161.539230
 20
79.599999
 30
0.0
 10
161.659110
 20
79.310582
 30
0.0
 10
161.700000
 20
79.000000
 30
0.0
 10
161.659100
 20
78.689420
 30
0.0
 10
161.539220
 20
78.400000
 30
0.0
 10
161.348520
 20
78.151470
 30
0.0
 10
161.099990
 20
77.960770
 30
0.0
 10
160.810570
 20
77.840890
 30
0.0
 10
160.499990
 20
77.799990
 30
0.0
 10
160.189410
 20
77.840890
 30
0.0
 10
159.899990
 20
77.960770
 30
0.0
 10
159.651460
 20
78.151470
 30
0.0
 10
159.460760
 20
78.400000
 30
0.0
 10
159.340880
 20
78.689420
 30
0.0
 10
159.300000
 20
79.000000
 30
0.0
 10
159.340890
 20
79.310583
 30
0.0
  0
LWPOLYLINE
  5
107
100
AcDbEntity
  8
0
 62
1
100
AcDbPolyline
 90
24
 70
1
 10
161.100000
 20
98.960770
 30
0.0
 10
160.810580
 20
98.840889
 30
0.0
 10
160.500000
 20
98.800000
 30
0.0
 10
160.189420
 20
98.840889
 30
0.0
 10
159.900000
 20
98.960770
 30
0.0
 10
159.651470
 20
99.151472
 30
0.0
 10
159.460770
 20
99.400000
 30
0.0
 10
159.340890
 20
99.689417
 30
0.0
 10
159.300000
 20
100.000000
 30
0.0
 10
159.340890
 20
100.310583
 30
0.0
 10
159.460770
 20
100.600000
 30
0.0
 10
159.651470
 20
100.848528
 30
0.0
 10
159.900000
 20
101.039230
 30
0.0
 10
160.189420
 20
101.159111
 30
0.0
 10
160.500000
 20
101.200000
 30
0.0
 10
160.810580
 20
101.159110
 30
0.0
 10
161.100000
 20
101.039229
 30
0.0
 10
161.348530
 20
100.848527
 30
0.0
 10
161.539230
 20
100.599999
 30
0.0
 10
161.659110
 20
100.310582
 30
0.0
 10
161.700000
 20
100.000000
 30
0.0
 10
161.659110
 20
99.689417
 30
0.0
 10
161.539230
 20
99.400000
 30
0.0
 10
161.348530
 20
99.151472
 30
0.0
  0
LWPOLYLINE
  5
108
100
AcDbEntity
  8
0
 62
1
100
AcDbPolyline
 90
24
 70
1
 10
97.448889
 20
101.388229
 30
0.0
 10
97.500000
 20
101.000000
 30
0.0
 10
97.448889
 20
100.611771
 30
0.0
 10
97.299038
 20
100.250000
 30
0.0
 10
97.060660
 20
99.939340
 30
0.0
 10
96.750000
 20
99.700962
 30
0.0
 10
96.388229
 20
99.551111
 30
0.0
 10
96.000000
 20
99.500000
 30
0.0
 10
95.611771
 20
99.551111
 30
0.0
 10
95.250000
 20
99.700962
 30
0.0
 10
94.939340
 20
99.939340
 30
0.0
 10
94.700962
 20
100.250000
 30
0.0
 10
94.551111
 20
100.611771
 30
0.0
 10
94.500000
 20
101.000000
 30
0.0
 10
94.551111
 20
101.388229
 30
0.0
 10
94.700962
 20
101.750000
 30
0.0
 10
94.939340
 20
102.060660
 30
0.0
 10
95.250000
 20
102.299038
 30
0.0
 10
95.611771
 20
102.448889
 30
0.0
 10
96.000000
 20
102.500000
 30
0.0
 10
96.388229
 20
102.448890
 30
0.0
 10
96.750000
 20
102.299039
 30
0.0
 10
97.060660
 20
102.060661
 30
0.0
 10
97.299038
 20
101.750001
 30
0.0
  0
LWPOLYLINE
  5
109
100
AcDbEntity
  8
0
 62
1
100
AcDbPolyline
 90
24
 70
1
 10
94.551111
 20
77.611770
 30
0.0
 10
94.500000
 20
78.000000
 30
0.0
 10
94.551111
 20
78.388230
 30
0.0
 10
94.700962
 20
78.750000
 30
0.0
 10
94.939340
 20
79.060660
 30
0.0
 10
95.250000
 20
79.299038
 30
0.0
 10
95.611771
 20
79.448889
 30
0.0
 10
96.000000
 20
79.500000
 30
0.0
 10
96.388229
 20
79.448890
 30
0.0
 10
96.750000
 20
79.299039
 30
0.0
 10
97.060660
 20
79.060661
 30
0.0
 10
97.299038
 20
78.750000
 30
0.0
 10
97.448889
 20
78.388230
 30
0.0
 10
97.500000
 20
78.000000
 30
0.0
 10
97.448889
 20
77.611770
 30
0.0
 10
97.299038
 20
77.250000
 30
0.0
 10
97.060660
 20
76.939340
 30
0.0
 10
96.750000
 20
76.700960
 30
0.0
 10
96.388229
 20
76.551110
 30
0.0
 10
96.000000
 20
76.500000
 30
0.0
 10
95.611771
 20
76.551110
 30
0.0
 10
95.250000
 20
76.700960
 30
0.0
 10
94.939340
 20
76.939340
 30
0.0
 10
94.700962
 20
77.250000
 30
0.0
  0
LWPOLYLINE
  5
10a
100
AcDbEntity
  8
0
 62
1
100
AcDbPolyline
 90
24
 70
1
 10
38.750000
 20
99.700962
 30
0.0
 10
38.388229
 20
99.551111
 30
0.0
 10
38.000000
 20
99.500000
 30
0.0
 10
37.611771
 20
99.551111
 30
0.0
 10
37.250000
 20
99.700962
 30
0.0
 10
36.939340
 20
99.939340
 30
0.0
 10
36.700962
 20
100.250000
 30
0.0
 10
36.551111
 20
100.611771
 30
0.0
 10
36.500000
 20
101.000000
 30
0.0
 10
36.551111
 20
101.388229
 30
0.0
 10
36.700962
 20
101.750000
 30
0.0
 10
36.939340
 20
102.060660
 30
0.0
 10
37.250000
 20
102.299038
 30
0.0
 10
37.611771
 20
102.448889
 30
0.0
 10
38.000000
 20
102.500000
 30
0.0
 10
38.388229
 20
102.448889
 30
0.0
 10
38.750000
 20
102.299038
 30
0.0
 10
39.060660
 20
102.060660
 30
0.0
 10
39.299038
 20
101.750000
 30
0.0
 10
39.448889
 20
101.388229
 30
0.0
 10
39.500000
 20
101.000000
 30
0.0
 10
39.448889
 20
100.611771
 30
0.0
 10
39.299038
 20
100.250000
 30
0.0
 10
39.060660
 20
99.939340
 30
0.0
  0
LWPOLYLINE
  5
10b
100
AcDbEntity
  8
0
 62
1
100
AcDbPolyline
 90
24
 70
1
 10
39.299038
 20
78.750000
 30
0.0
 10
39.448889
 20
78.388230
 30
0.0
 10
39.500000
 20
78.000000
 30
0.0
 10
39.448889
 20
77.611770
 30
0.0
 10
39.299038
 20
77.250000
 30
0.0
 10
39.060660
 20
76.939340
 30
0.0
 10
38.750000
 20
76.700960
 30
0.0
 10
38.388229
 20
76.551110
 30
0.0
 10
38.000000
 20
76.500000
 30
0.0
 10
37.611771
 20
76.551110
 30
0.0
 10
37.250000
 20
76.700960
 30
0.0
 10
36.939340
 20
76.939340
 30
0.0
 10
36.700962
 20
77.250000
 30
0.0
 10
36.551111
 20
77.611770
 30
0.0
 10
36.500000
 20
78.000000
 30
0.0
 10
36.551111
 20
78.388230
 30
0.0
 10
36.700962
 20
78.750000
 30
0.0
 10
36.939340
 20
79.060660
 30
0.0
 10
37.250000
 20
79.299038
 30
0.0
 10
37.611771
 20
79.448889
 30
0.0
 10
38.000000
 20
79.500000
 30
0.0
 10
38.388229
 20
79.448889
 30
0.0
 10
38.750000
 20
79.299038
 30
0.0
 10
39.060660
 20
79.060660
 30
0.0
  0
LWPOLYLINE
  5
10c
100
AcDbEntity
  8
0
 62
1
100
AcDbPolyline
 90
24
 70
1
 10
170.200000
 20
141.000000
 30
0.0
 10
170.125040
 20
140.430598
 30
0.0
 10
169.905260
 20
139.900000
 30
0.0
 10
169.555630
 20
139.444365
 30
0.0
 10
169.100000
 20
139.094744
 30
0.0
 10
168.569400
 20
138.874963
 30
0.0
 10
168.000000
 20
138.800000
 30
0.0
 10
167.430600
 20
138.874963
 30
0.0
 10
166.900000
 20
139.094744
 30
0.0
 10
166.444370
 20
139.444365
 30
0.0
 10
166.094740
 20
139.900000
 30
0.0
 10
165.874960
 20
140.430598
 30
0.0
 10
165.800000
 20
141.000000
 30
0.0
 10
165.874960
 20
141.569402
 30
0.0
 10
166.094740
 20
142.100000
 30
0.0
 10
166.444370
 20
142.555635
 30
0.0
 10
166.900000
 20
142.905256
 30
0.0
 10
167.430600
 20
143.125037
 30
0.0
 10
168.000000
 20
143.200000
 30
0.0
 10
168.569400
 20
143.125040
 30
0.0
 10
169.100000
 20
142.905259
 30
0.0
 10
169.555630
 20
142.555638
 30
0.0
 10
169.905260
 20
142.100003
 30
0.0
 10
170.125040
 20
141.569405
 30
0.0
  0
LWPOLYLINE
  5
10d
100
AcDbEntity
  8
0
 62
1
100
AcDbPolyline
 90
24
 70
1
 10
38.569402
 20
40.125040
 30
0.0
 10
39.100000
 20
39.905260
 30
0.0
 10
39.555635
 20
39.555630
 30
0.0
 10
39.905256
 20
39.100000
 30
0.0
 10
40.125037
 20
38.569400
 30
0.0
 10
40.200000
 20
38.000000
 30
0.0
 10
40.125037
 20
37.430600
 30
0.0
 10
39.905256
 20
36.900000
 30
0.0
 10
39.555635
 20
36.444370
 30
0.0
 10
39.100000
 20
36.094740
 30
0.0
 10
38.569402
 20
35.874960
 30
0.0
 10
38.000000
 20
35.800000
 30
0.0
 10
37.430598
 20
35.874960
 30
0.0
 10
36.900000
 20
36.094740
 30
0.0
 10
36.444365
 20
36.444370
 30
0.0
 10
36.094744
 20
36.900000
 30
0.0
 10
35.874963
 20
37.430600
 30
0.0
 10
35.800000
 20
38.000000
 30
0.0
 10
35.874963
 20
38.569400
 30
0.0
 10
36.094744
 20
39.100000
 30
0.0
 10
36.444365
 20
39.555630
 30
0.0
 10
36.900000
 20
39.905260
 30
0.0
 10
37.430598
 20
40.125040
 30
0.0
 10
38.000000
 20
40.200000
 30
0.0
  0
LWPOLYLINE
  5
10e
100
AcDbEntity
  8
0
 62
1
100
AcDbPolyline
 90
24
 70
1
 10
169.905260
 20
39.100000
 30
0.0
 10
170.125040
 20
38.569400
 30
0.0
 10
170.200040
 20
38.000000
 30
0.0
 10
170.125040
 20
37.430600
 30
0.0
 10
169.905260
 20
36.900000
 30
0.0
 10
169.555630
 20
36.444370
 30
0.0
 10
169.100000
 20
36.094740
 30
0.0
 10
168.569400
 20
35.874960
 30
0.0
 10
168.000000
 20
35.799960
 30
0.0
 10
167.430600
 20
35.874960
 30
0.0
 10
166.900000
 20
36.094740
 30
0.0
 10
166.444370
 20
36.444370
 30
0.0
 10
166.094740
 20
36.900000
 30
0.0
 10
165.874960
 20
37.430600
 30
0.0
 10
165.800000
 20
38.000000
 30
0.0
 10
165.875000
 20
38.569400
 30
0.0
 10
166.094780
 20
39.100000
 30
0.0
 10
166.444410
 20
39.555630
 30
0.0
 10
166.900040
 20
39.905260
 30
0.0
 10
167.430640
 20
40.125040
 30
0.0
 10
168.000040
 20
40.200040
 30
0.0
 10
168.569440
 20
40.125040
 30
0.0
 10
169.100040
 20
39.905260
 30
0.0
 10
169.555670
 20
39.555630
 30
0.0
  0
LWPOLYLINE
  5
10f
100
AcDbEntity
  8
0
 62
1
100
AcDbPolyline
 90
24
 70
1
 10
73.417638
 20
36.068150
 30
0.0
 10
72.900000
 20
36.000000
 30
0.0
 10
72.382362
 20
36.068150
 30
0.0
 10
71.900000
 20
36.267950
 30
0.0
 10
71.485786
 20
36.585790
 30
0.0
 10
71.167949
 20
37.000000
 30
0.0
 10
70.968148
 20
37.482360
 30
0.0
 10
70.900000
 20
38.000000
 30
0.0
 10
70.968148
 20
38.517640
 30
0.0
 10
71.167949
 20
39.000000
 30
0.0
 10
71.485786
 20
39.414210
 30
0.0
 10
71.900000
 20
39.732050
 30
0.0
 10
72.382362
 20
39.931850
 30
0.0
 10
72.900000
 20
40.000000
 30
0.0
 10
73.417638
 20
39.931800
 30
0.0
 10
73.900000
 20
39.732000
 30
0.0
 10
74.314214
 20
39.414160
 30
0.0
 10
74.632051
 20
39.000000
 30
0.0
 10
74.831852
 20
38.517640
 30
0.0
 10
74.900000
 20
38.000000
 30
0.0
 10
74.831852
 20
37.482360
 30
0.0
 10
74.632051
 20
37.000000
 30
0.0
 10
74.314214
 20
36.585790
 30
0.0
 10
73.900000
 20
36.267950
 30
0.0
  0
LWPOLYLINE
  5
110
100
AcDbEntity
  8
0
 62
1
100
AcDbPolyline
 90
24
 70
1
 10
80.831852
 20
37.482360
 30
0.0
 10
80.632051
 20
37.000000
 30
0.0
 10
80.314214
 20
36.585790
 30
0.0
 10
79.900000
 20
36.267950
 30
0.0
 10
79.417638
 20
36.068150
 30
0.0
 10
78.900000
 20
36.000000
 30
0.0
 10
78.382362
 20
36.068150
 30
0.0
 10
77.900000
 20
36.267950
 30
0.0
 10
77.485786
 20
36.585790
 30
0.0
 10
77.167949
 20
37.000000
 30
0.0
 10
76.968148
 20
37.482360
 30
0.0
 10
76.900000
 20
38.000000
 30
0.0
 10
76.968148
 20
38.517640
 30
0.0
 10
77.167949
 20
39.000000
 30
0.0
 10
77.485786
 20
39.414210
 30
0.0
 10
77.900000
 20
39.732050
 30
0.0
 10
78.382362
 20
39.931850
 30
0.0
 10
78.900000
 20
40.000000
 30
0.0
 10
79.417638
 20
39.931800
 30
0.0
 10
79.900000
 20
39.732000
 30
0.0
 10
80.314214
 20
39.414160
 30
0.0
 10
80.632051
 20
39.000000
 30
0.0
 10
80.831852
 20
38.517640
 30
0.0
 10
80.900000
 20
38.000000
 30
0.0
  0
LWPOLYLINE
  5
111
100
AcDbEntity
  8
0
 62
1
100
AcDbPolyline
 90
24
 70
1
 10
86.017636
 20
36.068150
 30
0.0
 10
85.500000
 20
36.000000
 30
0.0
 10
84.982362
 20
36.068150
 30
0.0
 10
84.500000
 20
36.267950
 30
0.0
 10
84.085786
 20
36.585790
 30
0.0
 10
83.767949
 20
37.000000
 30
0.0
 10
83.568148
 20
37.482360
 30
0.0
 10
83.500000
 20
38.000000
 30
0.0
 10
83.568148
 20
38.517640
 30
0.0
 10
83.767949
 20
39.000000
 30
0.0
 10
84.085786
 20
39.414210
 30
0.0
 10
84.500000
 20
39.732050
 30
0.0
 10
84.982362
 20
39.931850
 30
0.0
 10
85.500000
 20
40.000000
 30
0.0
 10
86.017638
 20
39.931800
 30
0.0
 10
86.500000
 20
39.732000
 30
0.0
 10
86.914214
 20
39.414160
 30
0.0
 10
87.232051
 20
39.000000
 30
0.0
 10
87.431852
 20
38.517640
 30
0.0
 10
87.500000
 20
38.000000
 30
0.0
 10
87.431852
 20
37.482360
 30
0.0
 10
87.232051
 20
37.000000
 30
0.0
 10
86.914214
 20
36.585790
 30
0.0
 10
86.500000
 20
36.267950
 30
0.0
  0
LWPOLYLINE
  5
112
100
AcDbEntity
  8
0
 62
1
100
AcDbPolyline
 90
24
 70
1
 10
92.914214
 20
36.585790
 30
0.0
 10
92.500000
 20
36.267950
 30
0.0
 10
92.017638
 20
36.068150
 30
0.0
 10
91.500000
 20
36.000000
 30
0.0
 10
90.982362
 20
36.068150
 30
0.0
 10
90.500000
 20
36.267950
 30
0.0
 10
90.085786
 20
36.585790
 30
0.0
 10
89.767949
 20
37.000000
 30
0.0
 10
89.568148
 20
37.482360
 30
0.0
 10
89.500000
 20
38.000000
 30
0.0
 10
89.568148
 20
38.517640
 30
0.0
 10
89.767949
 20
39.000000
 30
0.0
 10
90.085786
 20
39.414210
 30
0.0
 10
90.500000
 20
39.732050
 30
0.0
 10
90.982362
 20
39.931850
 30
0.0
 10
91.500000
 20
40.000000
 30
0.0
 10
92.017638
 20
39.931800
 30
0.0
 10
92.500000
 20
39.732000
 30
0.0
 10
92.914214
 20
39.414160
 30
0.0
 10
93.232051
 20
39.000000
 30
0.0
 10
93.431852
 20
38.517640
 30
0.0
 10
93.500000
 20
38.000000
 30
0.0
 10
93.431852
 20
37.482360
 30
0.0
 10
93.232051
 20
37.000000
 30
0.0
  0
LWPOLYLINE
  5
113
100
AcDbEntity
  8
0
 62
1
100
AcDbPolyline
 90
24
 70
1
 10
63.111771
 20
98.948889
 30
0.0
 10
63.500000
 20
99.000000
 30
0.0
 10
63.888229
 20
98.948889
 30
0.0
 10
64.250000
 20
98.799038
 30
0.0
 10
64.560660
 20
98.560660
 30
0.0
 10
64.799038
 20
98.250000
 30
0.0
 10
64.948889
 20
97.888229
 30
0.0
 10
65.000000
 20
97.500000
 30
0.0
 10
64.948889
 20
97.111771
 30
0.0
 10
64.799038
 20
96.750000
 30
0.0
 10
64.560660
 20
96.439340
 30
0.0
 10
64.250000
 20
96.200962
 30
0.0
 10
63.888229
 20
96.051111
 30
0.0
 10
63.500000
 20
96.000000
 30
0.0
 10
63.111771
 20
96.051111
 30
0.0
 10
62.750000
 20
96.200962
 30
0.0
 10
62.439340
 20
96.439340
 30
0.0
 10
62.200962
 20
96.750000
 30
0.0
 10
62.051111
 20
97.111771
 30
0.0
 10
62.000000
 20
97.500000
 30
0.0
 10
62.051111
 20
97.888229
 30
0.0
 10
62.200962
 20
98.250000
 30
0.0
 10
62.439340
 20
98.560660
 30
0.0
 10
62.750000
 20
98.799038
 30
0.0
  0
LWPOLYLINE
  5
114
100
AcDbEntity
  8
0
 62
1
100
AcDbPolyline
 90
24
 70
1
 10
62.051111
 20
48.888230
 30
0.0
 10
62.200962
 20
49.250000
 30
0.0
 10
62.439340
 20
49.560660
 30
0.0
 10
62.750000
 20
49.799040
 30
0.0
 10
63.111771
 20
49.948890
 30
0.0
 10
63.500000
 20
50.000000
 30
0.0
 10
63.888229
 20
49.948900
 30
0.0
 10
64.250000
 20
49.799050
 30
0.0
 10
64.560660
 20
49.560670
 30
0.0
 10
64.799038
 20
49.250010
 30
0.0
 10
64.948889
 20
48.888240
 30
0.0
 10
65.000000
 20
48.500000
 30
0.0
 10
64.948889
 20
48.111770
 30
0.0
 10
64.799038
 20
47.750000
 30
0.0
 10
64.560660
 20
47.439340
 30
0.0
 10
64.250000
 20
47.200960
 30
0.0
 10
63.888229
 20
47.051110
 30
0.0
 10
63.500000
 20
47.000000
 30
0.0
 10
63.111771
 20
47.051110
 30
0.0
 10
62.750000
 20
47.200960
 30
0.0
 10
62.439340
 20
47.439340
 30
0.0
 10
62.200962
 20
47.750000
 30
0.0
 10
62.051111
 20
48.111770
 30
0.0
 10
62.000000
 20
48.500000
 30
0.0
  0
LWPOLYLINE
  5
115
100
AcDbEntity
  8
0
 62
1
100
AcDbPolyline
 90
24
 70
1
 10
121.888230
 20
49.948890
 30
0.0
 10
122.250000
 20
49.799040
 30
0.0
 10
122.560660
 20
49.560660
 30
0.0
 10
122.799040
 20
49.250000
 30
0.0
 10
122.948890
 20
48.888230
 30
0.0
 10
123.000000
 20
48.500000
 30
0.0
 10
122.948900
 20
48.111770
 30
0.0
 10
122.799050
 20
47.750000
 30
0.0
 10
122.560670
 20
47.439340
 30
0.0
 10
122.250010
 20
47.200960
 30
0.0
 10
121.888240
 20
47.051110
 30
0.0
 10
121.500000
 20
47.000000
 30
0.0
 10
121.111770
 20
47.051100
 30
0.0
 10
120.750000
 20
47.200950
 30
0.0
 10
120.439340
 20
47.439330
 30
0.0
 10
120.200960
 20
47.749990
 30
0.0
 10
120.051110
 20
48.111760
 30
0.0
 10
120.000000
 20
48.500000
 30
0.0
 10
120.051100
 20
48.888230
 30
0.0
 10
120.200950
 20
49.250000
 30
0.0
 10
120.439330
 20
49.560660
 30
0.0
 10
120.749990
 20
49.799040
 30
0.0
 10
121.111760
 20
49.948890
 30
0.0
 10
121.500000
 20
50.000000
 30
0.0
  0
LWPOLYLINE
  5
116
100
AcDbEntity
  8
0
 62
1
100
AcDbPolyline
 90
24
 70
1
 10
120.439340
 20
96.439340
 30
0.0
 10
120.200960
 20
96.750000
 30
0.0
 10
120.051110
 20
97.111771
 30
0.0
 10
120.000000
 20
97.500000
 30
0.0
 10
120.051110
 20
97.888229
 30
0.0
 10
120.200960
 20
98.250000
 30
0.0
 10
120.439340
 20
98.560660
 30
0.0
 10
120.750000
 20
98.799038
 30
0.0
 10
121.111770
 20
98.948889
 30
0.0
 10
121.500000
 20
99.000000
 30
0.0
 10
121.888230
 20
98.948890
 30
0.0
 10
122.250000
 20
98.799039
 30
0.0
 10
122.560660
 20
98.560661
 30
0.0
 10
122.799040
 20
98.250001
 30
0.0
 10
122.948890
 20
97.888230
 30
0.0
 10
123.000000
 20
97.500000
 30
0.0
 10
122.948890
 20
97.111771
 30
0.0
 10
122.799040
 20
96.750000
 30
0.0
 10
122.560660
 20
96.439340
 30
0.0
 10
122.250000
 20
96.200962
 30
0.0
 10
121.888230
 20
96.051111
 30
0.0
 10
121.500000
 20
96.000000
 30
0.0
 10
121.111770
 20
96.051111
 30
0.0
 10
120.750000
 20
96.200962
 30
0.0
  0
LWPOLYLINE
  5
117
100
AcDbEntity
  8
0
 62
1
100
AcDbPolyline
 90
24
 70
1
 10
116.400000
 20
138.767949
 30
0.0
 10
115.985790
 20
139.085786
 30
0.0
 10
115.667950
 20
139.500000
 30
0.0
 10
115.468150
 20
139.982362
 30
0.0
 10
115.400000
 20
140.500000
 30
0.0
 10
115.468150
 20
141.017638
 30
0.0
 10
115.667950
 20
141.500000
 30
0.0
 10
115.985790
 20
141.914214
 30
0.0
 10
116.400000
 20
142.232051
 30
0.0
 10
116.882360
 20
142.431852
 30
0.0
 10
117.400000
 20
142.500000
 30
0.0
 10
117.917640
 20
142.431850
 30
0.0
 10
118.400000
 20
142.232049
 30
0.0
 10
118.814210
 20
141.914212
 30
0.0
 10
119.132050
 20
141.499998
 30
0.0
 10
119.331850
 20
141.017636
 30
0.0
 10
119.400000
 20
140.500000
 30
0.0
 10
119.331850
 20
139.982362
 30
0.0
 10
119.132050
 20
139.500000
 30
0.0
 10
118.814210
 20
139.085786
 30
0.0
 10
118.400000
 20
138.767949
 30
0.0
 10
117.917640
 20
138.568148
 30
0.0
 10
117.400000
 20
138.500000
 30
0.0
 10
116.882360
 20
138.568148
 30
0.0
  0
LWPOLYLINE
  5
118
100
AcDbEntity
  8
0
 62
1
100
AcDbPolyline
 90
24
 70
1
 10
111.400000
 20
138.500000
 30
0.0
 10
110.882360
 20
138.568148
 30
0.0
 10
110.400000
 20
138.767949
 30
0.0
 10
109.985790
 20
139.085786
 30
0.0
 10
109.667950
 20
139.500000
 30
0.0
 10
109.468150
 20
139.982362
 30
0.0
 10
109.400000
 20
140.500000
 30
0.0
 10
109.468150
 20
141.017638
 30
0.0
 10
109.667950
 20
141.500000
 30
0.0
 10
109.985790
 20
141.914214
 30
0.0
 10
110.400000
 20
142.232051
 30
0.0
 10
110.882360
 20
142.431852
 30
0.0
 10
111.400000
 20
142.500000
 30
0.0
 10
111.917640
 20
142.431850
 30
0.0
 10
112.400000
 20
142.232049
 30
0.0
 10
112.814210
 20
141.914212
 30
0.0
 10
113.132050
 20
141.499998
 30
0.0
 10
113.331850
 20
141.017636
 30
0.0
 10
113.400000
 20
140.500000
 30
0.0
 10
113.331850
 20
139.982362
 30
0.0
 10
113.132050
 20
139.500000
 30
0.0
 10
112.814210
 20
139.085786
 30
0.0
 10
112.400000
 20
138.767949
 30
0.0
 10
111.917640
 20
138.568148
 30
0.0
  0
LWPOLYLINE
  5
119
100
AcDbEntity
  8
0
 62
5
100
AcDbPolyline
 90
52
 70
1
 10
168.000000
 20
10.000000
 30
0.0
 10
171.654730
 20
10.239540
 30
0.0
 10
175.246930
 20
10.954080
 30
0.0
 10
178.715140
 20
12.131370
 30
0.0
 10
182.000000
 20
13.751290
 30
0.0
 10
185.045320
 20
15.786110
 30
0.0
 10
187.798990
 20
18.201010
 30
0.0
 10
190.213890
 20
20.954680
 30
0.0
 10
192.248710
 20
24.000000
 30
0.0
 10
193.868630
 20
27.284860
 30
0.0
 10
195.045920
 20
30.753070
 30
0.0
 10
195.760460
 20
34.345270
 30
0.0
 10
196.000000
 20
38.000000
 30
0.0
 10
196.000000
 20
141.000000
 30
0.0
 10
195.760460
 20
144.654733
 30
0.0
 10
195.045920
 20
148.246933
 30
0.0
 10
193.868630
 20
151.715136
 30
0.0
 10
192.248710
 20
155.000000
 30
0.0
 10
190.213890
 20
158.045320
 30
0.0
 10
187.798990
 20
160.798990
 30
0.0
 10
185.045320
 20
163.213894
 30
0.0
 10
182.000000
 20
165.248711
 30
0.0
 10
178.715140
 20
166.868627
 30
0.0
 10
175.246930
 20
168.045923
 30
0.0
 10
171.654730
 20
168.760456
 30
0.0
 10
168.000000
 20
169.000000
 30
0.0
 10
38.000000
 20
169.000000
 30
0.0
 10
34.345267
 20
168.760456
 30
0.0
 10
30.753067
 20
168.045923
 30
0.0
 10
27.284864
 20
166.868627
 30
0.0
 10
24.000000
 20
165.248711
 30
0.0
 10
20.954680
 20
163.213894
 30
0.0
 10
18.201010
 20
160.798990
 30
0.0
 10
15.786106
 20
158.045320
 30
0.0
 10
13.751289
 20
155.000000
 30
0.0
 10
12.131373
 20
151.715136
 30
0.0
 10
10.954077
 20
148.246933
 30
0.0
 10
10.239544
 20
144.654733
 30
0.0
 10
10.000000
 20
141.000000
 30
0.0
 10
10.000000
 20
38.000000
 30
0.0
 10
10.239544
 20
34.345270
 30
0.0
 10
10.954077
 20
30.753070
 30
0.0
 10
12.131373
 20
27.284860
 30
0.0
 10
13.751289
 20
24.000000
 30
0.0
 10
15.786106
 20
20.954680
 30
0.0
 10
18.201010
 20
18.201010
 30
0.0
 10
20.954680
 20
15.786110
 30
0.0
 10
24.000000
 20
13.751290
 30
0.0
 10
27.284864
 20
12.131370
 30
0.0
 10
30.753067
 20
10.954080
 30
0.0
 10
34.345267
 20
10.239540
 30
0.0
 10
38.000000
 20
10.000000
 30
0.0
  0
ENDSEC
  0
SECTION
  2
OBJECTS
  0
DICTIONARY
  5
C
330
0
100
AcDbDictionary
  3
ACAD_GROUP
350
D
  3
ACAD_MLINESTYLE
350
17
  0
DICTIONARY
  5
D
330
C
100
AcDbDictionary
  0
DICTIONARY
  5
1A
330
C
100
AcDbDictionary
  0
DICTIONARY
  5
17
330
C
100
AcDbDictionary
  3
STANDARD
350
18
  0
DICTIONARY
  5
19
330
C
100
AcDbDictionary
  0
ENDSEC
  0
EOF
